<?xml version="1.0" standalone="no"?>
<!DOCTYPE svg PUBLIC "-//W3C//DTD SVG 20010904//EN"
 "http://www.w3.org/TR/2001/REC-SVG-20010904/DTD/svg10.dtd">
<svg version="1.0" xmlns="http://www.w3.org/2000/svg"
 width="4096.000000pt" height="4096.000000pt" viewBox="0 0 4096.000000 4096.000000"
 preserveAspectRatio="xMidYMid meet">
<metadata>
Created by potrace 1.14, written by Peter Selinger 2001-2017
</metadata>
<g transform="translate(0.000000,4096.000000) scale(0.100000,-0.100000)"
fill="#000000" stroke="none">
<path d="M22820 38489 c-228 -48 -442 -125 -680 -244 -210 -105 -367 -221
-528 -390 -143 -150 -246 -236 -336 -278 -167 -80 -442 -149 -826 -207 -300
-46 -392 -66 -412 -91 -17 -20 -18 -57 -18 -473 0 -331 4 -483 15 -571 15
-127 36 -218 60 -264 32 -63 279 -264 472 -385 51 -32 90 -62 88 -66 -3 -5 41
-44 97 -88 170 -131 269 -226 317 -305 75 -121 205 -329 246 -392 21 -34 29
-52 18 -42 -11 10 -29 33 -39 52 -24 46 -35 45 -22 -2 44 -159 82 -370 88
-493 4 -74 10 -146 13 -160 4 -14 11 -158 17 -320 6 -162 15 -344 19 -405 10
-133 -2 -549 -18 -625 -38 -178 -114 -304 -278 -459 -58 -56 -103 -101 -98
-101 18 0 107 75 179 150 126 132 194 251 209 365 3 19 5 12 5 -20 3 -86 -70
-217 -192 -343 -76 -79 -157 -140 -309 -231 -151 -91 -255 -161 -337 -227
-185 -148 -269 -187 -561 -258 -145 -36 -207 -45 -164 -25 13 6 -2 7 -45 3
-81 -7 -293 -43 -300 -51 -3 -3 29 -3 70 0 62 4 68 4 35 -5 -22 -5 -67 -7
-100 -4 -41 4 -55 3 -45 -4 12 -8 12 -10 -5 -10 -32 0 -194 -19 -262 -30 -35
-5 -93 -15 -130 -21 -254 -41 -350 -74 -411 -143 -51 -59 -57 -95 -57 -371 0
-240 1 -253 24 -314 39 -101 249 -411 502 -742 157 -204 161 -216 180 -519 13
-217 21 -281 41 -311 21 -32 65 -85 168 -205 150 -174 199 -245 339 -493 96
-170 141 -188 499 -198 122 -3 222 -10 222 -14 0 -5 64 -9 143 -9 190 0 230
-12 314 -93 91 -87 149 -198 159 -307 3 -24 9 -47 14 -50 10 -6 12 -251 4
-471 -6 -151 2 -225 33 -307 4 -10 2 -13 -5 -8 -8 5 -12 -1 -12 -16 0 -13 -5
-117 -10 -233 -10 -222 -25 -316 -60 -384 -87 -171 -350 -312 -780 -421 -69
-17 -127 -34 -130 -37 -3 -3 33 -3 80 0 51 3 71 2 50 -3 -19 -4 -201 -13 -405
-20 l-370 -12 -47 -29 c-26 -16 -54 -26 -63 -23 -18 7 -144 -42 -275 -106 -52
-26 -177 -80 -277 -120 -101 -40 -181 -76 -178 -80 3 -5 -21 -16 -52 -25 -32
-8 -152 -47 -268 -85 -115 -38 -226 -72 -245 -75 -41 -7 -154 -42 -190 -60
-31 -15 -75 -29 -165 -50 -165 -40 -299 -81 -428 -131 -150 -58 -209 -73 -89
-23 40 17 71 33 69 35 -2 2 -75 -13 -162 -32 -167 -37 -320 -82 -312 -90 3 -3
42 0 86 7 102 14 118 5 19 -11 -40 -7 -119 -23 -176 -37 -56 -13 -106 -21
-112 -18 -12 7 -148 -40 -180 -63 -58 -42 -286 -101 -590 -152 -90 -16 -114
-25 -199 -80 -101 -65 -232 -122 -459 -201 -264 -91 -353 -142 -413 -238 -26
-41 -29 -53 -29 -136 0 -138 46 -338 147 -635 54 -160 149 -387 204 -487 108
-196 293 -383 379 -383 48 0 73 9 260 90 169 74 294 117 380 131 30 5 82 13
115 19 160 25 244 64 400 185 188 145 385 257 645 367 263 111 620 209 620
169 0 -6 9 -11 20 -11 69 0 238 -103 293 -177 71 -97 311 -560 432 -833 55
-125 161 -335 203 -405 102 -168 178 -260 417 -505 249 -254 296 -321 365
-515 51 -146 54 -173 24 -247 -59 -143 -136 -224 -345 -361 -73 -49 -143 -99
-154 -112 -23 -27 -54 -44 -225 -130 -268 -135 -483 -217 -612 -234 -76 -11
-158 -37 -202 -66 -24 -16 -39 -45 -51 -98 -9 -44 30 -86 126 -137 46 -25 104
-62 130 -82 26 -20 119 -128 207 -240 377 -478 518 -598 877 -744 68 -27 95
-49 142 -112 12 -16 54 -46 92 -66 l70 -37 78 11 c43 5 96 15 118 20 154 40
351 66 605 80 282 15 424 -2 560 -70 61 -30 290 -182 290 -193 0 -9 118 -167
125 -167 2 0 2 7 -1 15 -4 8 -4 15 -1 15 2 0 12 -21 22 -47 10 -27 86 -187
169 -358 l150 -310 1 -210 c0 -207 -6 -265 -26 -265 -6 0 -6 6 1 19 5 11 10
26 10 33 -1 18 -29 -33 -30 -54 0 -9 -37 -50 -81 -91 -63 -58 -106 -87 -188
-127 -58 -28 -113 -58 -121 -65 -8 -7 -76 -32 -150 -55 -74 -23 -169 -59 -212
-81 -42 -21 -83 -36 -91 -33 -8 3 -108 -22 -223 -55 -115 -33 -245 -67 -289
-76 -44 -9 -97 -20 -117 -25 -118 -30 -121 -32 -107 -41 10 -6 4 -9 -20 -9
-61 0 -332 -61 -446 -100 -61 -22 -291 -109 -511 -195 -441 -173 -1209 -435
-1271 -434 -31 0 -34 2 -18 9 11 5 32 9 47 9 27 1 285 84 296 96 7 6 -6 5
-178 -19 -107 -16 -257 -34 -505 -61 -77 -8 -158 -20 -180 -26 -22 -6 -80 -15
-130 -20 -121 -12 -130 -15 -143 -44 -15 -33 -16 -328 -2 -428 32 -223 54
-301 131 -467 26 -58 73 -173 102 -255 57 -157 112 -276 174 -372 43 -69 137
-169 175 -189 42 -22 156 -18 193 6 16 11 93 85 170 164 171 176 226 213 451
301 198 78 468 208 609 294 55 34 107 61 116 61 9 0 52 18 95 40 43 22 88 40
100 40 26 0 110 29 194 68 74 34 139 54 360 111 85 22 181 47 213 55 31 9 83
23 114 31 31 9 134 38 228 65 184 53 239 68 385 106 81 21 337 99 450 137 49
17 399 15 465 -2 83 -22 152 -51 173 -74 19 -21 37 -79 62 -197 16 -79 33
-432 25 -520 -10 -113 -25 -527 -35 -980 -15 -640 -28 -991 -40 -1050 -6 -30
-19 -120 -29 -200 -19 -140 -22 -152 -106 -360 -47 -118 -139 -321 -202 -450
-106 -214 -117 -240 -117 -290 0 -30 1 -200 3 -378 1 -177 0 -326 -4 -331 -5
-10 12 -438 21 -508 3 -24 9 -43 13 -43 4 0 16 17 25 38 14 31 15 46 6 87 -29
136 -40 205 -39 255 1 52 2 50 15 -35 8 -49 23 -129 34 -177 11 -48 20 -96 20
-106 0 -10 -18 -41 -40 -71 -39 -52 -40 -55 -40 -135 0 -70 22 -214 36 -237 2
-5 7 -48 9 -97 2 -49 9 -102 15 -117 6 -16 15 -78 19 -139 10 -121 21 -156 97
-308 153 -305 260 -453 371 -511 168 -87 469 -157 679 -157 227 0 390 81 586
289 112 118 156 214 198 421 36 180 59 276 104 425 82 274 90 336 126 1010 16
290 40 653 60 885 17 208 30 415 40 625 21 444 30 607 40 745 15 212 30 574
41 1000 35 1401 48 1656 98 1928 49 265 229 611 408 784 77 73 77 73 233 83
52 3 118 10 145 15 172 32 280 53 355 71 47 12 114 27 150 35 74 17 287 30
700 44 157 5 301 12 320 15 130 20 189 30 300 52 69 14 136 28 150 30 60 12
232 65 299 92 213 88 389 302 460 561 25 90 29 246 7 288 -42 81 -222 195
-440 279 -227 88 -402 119 -726 130 -199 6 -224 8 -165 16 93 11 377 0 484
-19 114 -20 356 -80 406 -102 36 -15 271 -128 318 -154 40 -21 30 6 -19 51
-97 90 -289 170 -499 210 -134 26 -283 39 -505 46 -231 7 -454 29 -630 61
-191 36 -218 38 -115 10 88 -24 171 -55 149 -56 -6 0 -37 9 -70 20 -147 51
-345 64 -437 30 -54 -20 -120 -82 -290 -271 -32 -35 -50 -50 -40 -34 10 17
-34 -19 -98 -80 -176 -168 -294 -228 -403 -205 -91 19 -230 116 -306 214 -19
25 -40 43 -47 41 -8 -2 -20 23 -33 68 -98 329 -155 465 -300 702 -89 146 -254
394 -378 568 -52 73 -97 147 -103 170 -23 85 7 241 66 340 75 130 247 219 623
326 136 38 162 45 297 76 110 26 267 82 409 147 223 102 387 158 462 158 50 0
125 39 191 100 38 34 152 118 254 186 269 178 412 301 573 489 118 139 146
206 146 355 0 97 -15 161 -55 240 -41 80 -72 117 -134 159 -90 60 -135 75
-210 73 -36 -1 -127 -3 -201 -6 -84 -2 -112 -1 -75 3 52 7 54 8 20 10 -127 6
-277 51 -342 102 -79 63 -95 117 -74 254 5 33 13 101 18 150 l8 90 5 -70 5
-69 56 89 c89 141 87 133 31 127 -51 -5 -70 -16 -82 -47 -9 -20 -9 -19 -9 2
-1 31 22 50 71 58 24 4 63 18 88 33 54 30 380 349 493 482 117 138 196 217
338 340 168 145 266 251 350 379 120 180 198 368 239 572 25 128 28 353 5 420
-30 84 -233 260 -524 455 -198 132 -223 165 -251 329 -29 174 -87 314 -192
467 -61 88 -77 131 -78 215 0 68 46 95 243 142 26 6 59 11 74 11 27 0 66 6
253 41 277 52 438 142 533 297 77 127 76 126 222 56 76 -37 85 -39 195 -42
136 -4 740 14 990 28 145 9 183 8 220 -4 25 -8 131 -41 235 -74 630 -201 850
-248 1145 -246 233 2 354 33 502 131 141 92 245 244 288 418 24 96 26 204 5
245 -30 57 -64 74 -217 106 -48 10 -83 21 -77 25 6 3 -28 35 -75 70 -60 45
-103 89 -148 149 -81 109 -264 298 -381 393 -253 205 -461 307 -892 436 -334
100 -478 131 -600 131 -80 0 -95 -3 -137 -28 -80 -46 -257 -199 -393 -340
-367 -379 -438 -446 -524 -495 -46 -26 -86 -46 -87 -44 -2 2 31 23 74 47 59
33 113 79 229 194 84 82 151 151 148 154 -4 5 -21 -9 -171 -139 -222 -193
-363 -288 -463 -314 -35 -9 -95 -32 -133 -51 -72 -36 -300 -176 -330 -202 -14
-12 -63 -17 -225 -23 -115 -4 -221 -11 -238 -15 -77 -17 -491 -137 -585 -169
-58 -20 -131 -41 -163 -46 -32 -5 -111 -28 -175 -50 -64 -21 -139 -46 -167
-54 -104 -31 -422 -107 -460 -110 -22 -1 -101 -15 -175 -29 -129 -26 -327 -42
-560 -47 l-95 -2 0 384 c0 488 10 599 64 719 22 47 46 110 54 140 31 118 59
308 77 545 16 196 27 306 39 370 17 99 79 207 181 320 49 55 145 164 212 243
67 78 126 142 132 142 5 0 34 24 65 53 31 28 78 71 104 95 26 23 48 48 50 55
1 6 63 49 137 96 74 46 176 109 225 141 119 76 297 178 597 343 408 225 501
287 594 393 149 171 245 258 373 335 68 41 152 100 187 132 106 97 196 248
265 443 46 132 60 217 70 434 l9 205 -97 94 c-54 52 -141 129 -193 170 -93 75
-547 381 -705 476 -95 58 -357 191 -581 298 -89 41 -174 88 -190 102 -28 26
-27 25 16 -3 60 -39 114 -66 106 -53 -12 19 -210 151 -226 151 -23 0 -273 256
-297 305 -76 149 -43 307 107 515 171 239 247 374 308 550 16 47 81 289 143
539 l114 453 -40 74 c-21 41 -66 109 -100 152 -61 77 -508 558 -524 564 -20 8
-339 304 -367 342 -38 50 -318 326 -331 326 -5 0 -47 48 -94 108 -97 124 -518
549 -694 701 -244 210 -347 274 -475 297 -85 15 -351 17 -420 3z m1775 -1219
c27 -27 47 -50 44 -50 -3 0 -27 23 -54 50 -27 28 -47 50 -44 50 3 0 27 -22 54
-50z m-3844 -1801 c97 -67 167 -125 204 -169 16 -19 0 -7 -36 26 -37 34 -109
89 -160 124 -106 70 -106 70 -92 70 5 0 43 -23 84 -51z m616 -1056 c-3 -10 -5
-2 -5 17 0 19 2 27 5 18 2 -10 2 -26 0 -35z m4178 -903 c10 -11 16 -20 13 -20
-3 0 -13 9 -23 20 -10 11 -16 20 -13 20 3 0 13 -9 23 -20z m-5749 -1940 c-15
-5 -53 -11 -85 -14 l-56 -5 65 13 c75 16 120 19 76 6z m5094 -1764 c0 -2 -19
-16 -42 -31 -23 -15 -65 -48 -92 -74 l-51 -45 45 47 c48 51 140 119 140 103z
m2186 -2387 c-87 -44 -161 -78 -164 -75 -5 6 296 155 313 155 6 0 -61 -36
-149 -80z m3527 -88 c-2 -3 -16 8 -31 24 l-27 28 31 -24 c17 -13 30 -26 27
-28z m-9356 -468 c-3 -10 -5 -4 -5 12 0 17 2 24 5 18 2 -7 2 -21 0 -30z m3363
-100 c-64 -20 -259 -60 -327 -67 -41 -4 -29 0 42 14 55 11 145 31 200 44 114
27 151 31 85 9z m-587 -90 c-13 -2 -33 -2 -45 0 -13 2 -3 4 22 4 25 0 35 -2
23 -4z m-2766 -75 c-3 -7 -5 -2 -5 12 0 14 2 19 5 13 2 -7 2 -19 0 -25z m-17
-183 c-23 -112 -106 -237 -221 -334 -60 -51 -58 -49 27 40 50 52 101 109 113
127 32 46 68 141 77 204 4 29 9 45 12 36 2 -10 -2 -43 -8 -73z m-410 -460
c-36 -19 -128 -53 -248 -91 -7 -2 -11 0 -8 5 3 5 16 11 28 14 26 5 166 57 218
80 54 24 60 19 10 -8z m-283 -101 c-3 -3 -12 -4 -19 -1 -8 3 -5 6 6 6 11 1 17
-2 13 -5z m-84 -21 c-7 -2 -21 -2 -30 0 -10 3 -4 5 12 5 17 0 24 -2 18 -5z
m-988 -119 c-57 -43 -296 -152 -470 -215 -144 -52 -103 -30 85 46 185 75 299
128 355 164 35 23 59 27 30 5z m4930 -216 c-175 -33 -177 -33 135 -39 328 -7
390 -16 500 -71 120 -61 164 -154 182 -383 12 -164 2 -294 -38 -455 -14 -58
-29 -126 -34 -153 -11 -56 -75 -186 -161 -328 -66 -111 -128 -197 -263 -370
-49 -63 -136 -186 -194 -274 -191 -291 -211 -320 -242 -355 -18 -19 -84 -104
-147 -189 -63 -85 -129 -173 -148 -195 -62 -77 -162 -221 -219 -318 -32 -54
-65 -103 -74 -110 -15 -12 -15 -11 -1 12 139 224 128 215 -143 -115 -60 -71
-138 -166 -175 -210 -60 -73 -54 -68 71 55 75 74 139 137 141 139 3 2 5 0 5
-6 0 -16 -272 -283 -282 -277 -4 3 -30 -19 -56 -48 -94 -106 -231 -246 -422
-431 -107 -105 -204 -199 -215 -210 -19 -19 41 11 133 65 17 11 32 17 32 15 0
-9 -161 -102 -268 -156 -56 -28 -120 -53 -142 -56 -48 -6 -181 -54 -195 -71
-33 -39 -505 -41 -505 -2 0 6 -27 40 -61 76 -34 37 -73 84 -88 104 -14 21 -30
38 -34 38 -17 0 50 -106 99 -157 55 -58 58 -66 9 -28 -44 33 -88 102 -175 274
l-73 143 12 248 c14 270 5 427 -27 463 -9 10 -46 35 -82 54 -92 50 -132 78
-235 159 -137 108 -242 185 -330 244 -119 79 -215 153 -260 200 -40 42 -142
126 -310 255 -300 231 -568 588 -591 788 -5 46 -4 57 8 57 12 0 63 57 62 70
-1 12 58 48 204 124 86 45 195 107 242 137 132 86 150 96 230 128 70 27 191
61 320 90 187 41 256 58 400 100 716 207 701 203 1140 365 113 41 311 110 440
152 129 42 312 103 405 136 337 120 485 166 695 218 19 4 88 14 153 21 69 7
112 16 105 21 -8 4 7 8 37 8 48 0 179 17 335 44 41 8 91 14 110 14 29 0 27 -2
-15 -10z m593 -7 c20 -11 55 -39 77 -63 77 -82 79 -93 5 -21 -41 40 -91 79
-110 87 -19 8 -29 15 -22 16 7 0 29 -9 50 -19z m232 -306 c0 -5 -5 -3 -10 5
-5 8 -10 20 -10 25 0 6 5 3 10 -5 5 -8 10 -19 10 -25z m19 -74 c1 -35 -5 -22
-12 24 -5 28 -4 34 3 20 5 -11 9 -31 9 -44z m-8122 -197 c-3 -3 -12 -4 -19 -1
-8 3 -5 6 6 6 11 1 17 -2 13 -5z m-407 -94 c-8 -5 -19 -10 -25 -10 -5 0 -3 5
5 10 8 5 20 10 25 10 6 0 3 -5 -5 -10z m8527 -172 c-3 -8 -6 -5 -6 6 -1 11 2
17 5 13 3 -3 4 -12 1 -19z m-10 -40 c-3 -8 -6 -5 -6 6 -1 11 2 17 5 13 3 -3 4
-12 1 -19z m-7076 -1195 c13 -16 12 -17 -3 -4 -10 7 -18 15 -18 17 0 8 8 3 21
-13z m7317 -1481 c16 -24 16 -24 -6 -11 -15 10 -22 23 -21 44 1 21 3 24 6 10
3 -10 12 -30 21 -43z m-2194 -135 c-68 -71 -154 -181 -229 -290 -70 -104 -63
-71 9 43 56 87 244 305 254 295 3 -3 -12 -24 -34 -48z m2391 -17 c28 -4 43 -8
34 -9 -9 0 -30 -4 -46 -7 -21 -4 -35 0 -53 16 -21 18 -22 21 -5 15 11 -4 43
-11 70 -15z m113 3 c-10 -2 -28 -2 -40 0 -13 2 -5 4 17 4 22 1 32 -1 23 -4z
m-3531 -809 c-3 -3 -12 -4 -19 -1 -8 3 -5 6 6 6 11 1 17 -2 13 -5z m-2496
-393 c-25 -34 -281 -225 -281 -209 0 3 21 20 48 38 69 50 230 178 237 190 3 5
8 10 11 10 3 0 -4 -13 -15 -29z m1816 -2525 c19 -38 12 -32 -23 19 -14 22 -19
33 -10 25 10 -7 24 -27 33 -44z m3573 -439 c0 -2 -19 -21 -42 -42 l-43 -40 40
43 c36 39 45 47 45 39z m-633 -168 c23 -17 43 -32 43 -35 0 -16 -119 77 -172
134 -27 28 -48 53 -48 55 0 3 30 -25 67 -60 36 -35 86 -78 110 -94z m93 -65
c0 -2 -9 0 -20 6 -11 6 -20 13 -20 16 0 2 9 0 20 -6 11 -6 20 -13 20 -16z
m290 6 c-29 -22 -103 -45 -122 -37 -7 3 -2 6 12 7 14 1 48 12 75 25 62 29 67
30 35 5z m-3854 -1029 c-17 -27 -247 -99 -439 -136 -171 -33 -108 -8 88 35
182 40 305 77 330 101 12 12 28 12 21 0z m-569 -157 c-3 -3 -12 -4 -19 -1 -8
3 -5 6 6 6 11 1 17 -2 13 -5z m-44 -11 c-7 -2 -19 -2 -25 0 -7 3 -2 5 12 5 14
0 19 -2 13 -5z m-2796 -749 c-3 -3 -12 -4 -19 -1 -8 3 -5 6 6 6 11 1 17 -2 13
-5z m4090 -5216 c-2 -13 -4 -3 -4 22 0 25 2 35 4 23 2 -13 2 -33 0 -45z"/>
<path d="M20460 22775 c0 -11 74 -71 164 -132 153 -105 124 -68 -43 56 -87 65
-121 86 -121 76z"/>
<path d="M20965 22400 c12 -19 189 -151 230 -172 55 -28 38 -12 -101 92 -112
84 -144 104 -129 80z"/>
<path d="M20554 31894 c-69 -47 -102 -75 -108 -90 -4 -10 -2 -13 7 -8 19 12
147 116 147 120 0 7 -7 4 -46 -22z"/>
<path d="M7562 28959 c-58 -29 -147 -130 -184 -209 -23 -47 -33 -84 -36 -136
-4 -63 0 -83 38 -195 50 -146 166 -391 240 -504 145 -221 488 -604 771 -861
208 -188 321 -268 599 -424 222 -124 288 -169 354 -241 106 -114 216 -300 216
-364 0 -55 -74 -264 -141 -397 -50 -100 -96 -168 -183 -272 -73 -88 -89 -126
-110 -266 -30 -196 -61 -294 -188 -599 -50 -119 -108 -262 -129 -319 -40 -105
-121 -274 -166 -345 -39 -62 -118 -225 -162 -333 -69 -171 -93 -267 -98 -392
l-6 -112 29 10 c49 19 87 47 145 107 125 129 242 315 405 648 63 126 152 302
199 390 102 194 167 338 189 425 19 74 54 136 259 465 174 278 225 349 478
660 184 226 246 294 322 350 21 16 33 31 28 34 -6 4 18 26 54 50 38 26 68 40
76 36 7 -5 10 -4 6 2 -12 19 213 106 406 158 72 20 224 65 337 100 247 77 344
100 580 140 458 78 575 119 690 242 170 179 243 287 294 433 21 58 48 125 61
150 39 75 78 271 57 284 -5 3 -12 -25 -16 -62 -7 -70 -36 -205 -43 -199 -2 2
4 49 13 103 21 128 15 244 -14 301 -12 24 -48 66 -79 95 -31 29 -134 127 -228
218 -93 91 -199 189 -234 219 -169 144 -389 294 -528 358 -92 42 -276 73 -613
102 -63 6 -173 16 -245 22 -79 7 -205 9 -320 5 -226 -7 -186 -7 -470 -2 -176
3 -214 2 -160 -5 39 -6 86 -14 105 -19 30 -8 26 -9 -22 -5 -31 3 -134 10 -230
15 -95 6 -198 15 -228 20 -30 5 -271 12 -535 15 -393 5 -511 4 -650 -9 -172
-16 -456 -21 -421 -7 12 4 1 7 -31 7 -40 0 -72 12 -178 64 -113 56 -139 65
-195 68 -51 2 -74 -1 -108 -19z m2877 -143 c-2 -2 -24 -6 -49 -9 -30 -4 -38
-3 -25 3 19 8 83 14 74 6z"/>
<path d="M11990 28665 c0 -2 19 -17 43 -32 120 -76 150 -97 247 -171 57 -45
107 -78 110 -75 16 17 -237 210 -325 248 -22 10 -48 21 -57 26 -10 5 -18 7
-18 4z"/>
<path d="M12597 28174 c105 -114 133 -141 133 -130 0 15 -143 169 -195 209
-23 18 3 -16 62 -79z"/>
<path d="M20855 28126 c69 -22 97 -27 91 -18 -7 11 -86 32 -113 31 -10 -1 0
-7 22 -13z"/>
<path d="M27210 26722 c-41 -45 -82 -102 -73 -102 4 0 43 11 85 24 42 13 96
27 120 31 74 12 75 20 4 49 -83 33 -105 33 -136 -2z"/>
<path d="M10492 26124 c-30 -20 -51 -38 -49 -41 4 -3 81 50 106 73 15 14 -12
-1 -57 -32z"/>
<path d="M9335 25619 c-283 -306 -323 -375 -260 -443 31 -33 43 -33 50 2 22
106 38 137 109 212 40 41 81 88 91 105 20 32 136 255 132 255 -1 -1 -56 -59
-122 -131z"/>
<path d="M15755 24603 c-93 -19 -250 -82 -399 -157 -125 -64 -272 -154 -264
-162 3 -2 27 5 53 16 26 11 128 48 227 81 221 74 263 93 361 163 42 31 82 56
87 56 6 0 10 5 10 10 0 6 -1 10 -2 9 -2 0 -34 -7 -73 -16z"/>
<path d="M10615 21405 c-110 -18 -211 -42 -251 -61 -98 -47 -248 -265 -389
-564 -70 -152 -133 -228 -425 -520 -507 -507 -680 -654 -940 -795 -155 -84
-348 -197 -496 -291 -301 -189 -561 -321 -765 -387 -214 -70 -308 -129 -325
-205 -3 -15 -8 -34 -10 -42 -3 -8 -12 -100 -20 -205 -11 -153 -12 -227 -3
-380 6 -104 15 -207 20 -227 5 -20 28 -61 51 -90 55 -72 311 -322 548 -537
145 -131 231 -220 333 -342 206 -243 444 -504 629 -685 199 -196 222 -208 388
-208 123 0 203 18 451 99 172 56 317 83 363 65 13 -5 51 -51 88 -107 130 -195
146 -250 123 -417 -8 -59 -17 -111 -19 -115 -12 -18 -39 -183 -52 -306 -16
-166 -18 -536 -4 -638 24 -167 32 -216 46 -287 49 -249 125 -470 231 -675 77
-149 293 -391 484 -541 58 -46 133 -114 166 -151 33 -37 160 -171 282 -298
122 -126 245 -263 273 -304 90 -130 218 -438 253 -611 19 -93 15 -143 -27
-340 -91 -430 -138 -551 -289 -753 -44 -60 -131 -186 -194 -280 -63 -95 -144
-210 -182 -257 -157 -196 -404 -444 -613 -616 -19 -16 -46 -39 -60 -52 -14
-12 -62 -47 -107 -77 -45 -31 -87 -64 -93 -75 -6 -11 -16 -20 -22 -20 -6 0
-20 -11 -32 -23 -84 -94 -504 -333 -626 -358 -30 -6 -113 -24 -183 -41 -71
-16 -131 -27 -134 -25 -5 6 10 11 92 29 l60 13 -55 7 c-77 9 -1560 8 -1585 -1
-18 -7 -18 -8 5 -13 76 -17 184 -37 250 -48 94 -15 103 -18 62 -19 -38 -1
-190 28 -336 64 -77 19 -125 25 -216 25 l-117 0 -90 -152 c-103 -173 -204
-359 -304 -562 l-69 -138 0 -192 c0 -224 14 -318 70 -486 49 -148 129 -328
278 -626 215 -430 298 -622 417 -964 103 -297 141 -372 207 -406 108 -56 363
88 713 403 288 260 334 293 542 397 348 174 586 207 1513 209 579 2 679 -7
1005 -89 100 -25 330 -77 415 -94 25 -5 110 -23 190 -40 80 -17 188 -39 240
-50 613 -125 1032 -236 1920 -509 753 -230 1045 -316 1500 -441 316 -87 1100
-283 1400 -351 52 -12 151 -34 220 -50 180 -42 479 -110 520 -119 58 -13 220
-50 305 -70 44 -10 130 -30 190 -45 451 -106 795 -193 1012 -256 293 -85 957
-240 1241 -290 28 -5 76 -13 105 -18 88 -16 347 -60 427 -72 162 -24 447 -78
635 -120 624 -140 959 -194 1725 -279 286 -32 491 -56 670 -80 36 -5 103 -14
150 -20 47 -6 113 -15 148 -20 58 -9 95 -15 260 -40 37 -6 92 -15 122 -20 155
-28 803 -113 1060 -140 58 -6 143 -15 190 -20 474 -51 1054 -84 1670 -95 322
-5 265 -11 682 64 29 6 94 17 143 25 50 9 110 20 135 25 25 5 72 14 105 20 33
6 152 29 265 52 654 129 927 226 1610 570 469 236 601 321 799 518 145 143
225 209 392 321 136 91 223 137 384 203 61 24 182 77 270 117 269 121 482 204
1080 422 575 209 1018 392 1391 573 359 174 483 257 504 337 17 61 -8 135 -64
186 -70 64 -92 70 -313 79 -152 6 -180 9 -123 13 l75 5 -100 6 c-157 10 -1025
12 -1175 3 l-135 -8 140 -13 c186 -16 451 -51 398 -52 -23 -1 -111 8 -195 18
-441 57 -1271 65 -1503 16 -85 -18 -107 -19 -85 -5 18 12 -209 2 -249 -11 -15
-5 27 -6 104 -3 72 4 128 4 125 1 -3 -3 -63 -10 -135 -16 -71 -7 -188 -21
-260 -31 -71 -11 -148 -22 -170 -25 l-40 -5 45 15 c25 8 62 22 83 32 33 14 36
18 20 24 -33 12 -576 -35 -863 -75 -58 -9 -168 -22 -245 -31 -77 -9 -269 -34
-427 -55 -158 -22 -369 -45 -470 -52 -240 -16 -1318 -16 -1753 0 -519 19 -900
26 -1020 17 -142 -11 -97 -23 86 -23 71 0 134 -4 140 -8 15 -9 64 -21 169 -40
64 -12 114 -14 202 -9 116 7 155 2 293 -30 34 -8 126 -18 205 -21 80 -4 177
-10 215 -14 63 -7 58 -7 -58 -9 -71 0 -170 3 -220 9 -51 5 -159 14 -242 20
-186 14 -309 26 -495 50 -149 19 -366 32 -830 50 -346 13 -763 39 -950 60 -98
11 -233 25 -375 40 -55 5 -163 17 -240 26 -77 8 -176 19 -220 24 -44 5 -125
14 -180 20 -55 6 -138 15 -185 20 -47 5 -129 14 -182 19 -54 6 -142 16 -195
22 -342 36 -554 65 -663 88 -45 10 -45 10 -5 6 67 -6 232 -25 405 -45 91 -11
233 -27 315 -36 83 -9 186 -21 230 -26 193 -21 492 -50 630 -59 83 -5 211 -19
285 -30 74 -11 192 -25 261 -30 69 -5 154 -13 190 -19 206 -32 328 -41 434
-34 170 11 222 9 335 -8 125 -20 459 -33 444 -18 -9 9 -94 18 -374 40 -69 6
-240 21 -380 35 -140 14 -280 27 -310 30 -513 48 -1772 176 -2068 211 -160 18
-399 57 -525 84 -50 11 -98 20 -107 20 -26 0 103 -80 148 -92 23 -6 41 -13 38
-15 -11 -11 -98 23 -158 64 -118 78 -158 88 -348 88 -149 0 -174 -3 -262 -27
-53 -15 -136 -30 -185 -34 -114 -8 -535 22 -648 47 -36 8 -35 8 13 3 29 -2
119 -9 200 -14 81 -6 179 -14 217 -20 141 -19 279 -9 399 31 33 10 73 19 90
19 28 1 29 2 12 12 -14 8 -92 9 -280 2 -400 -13 -658 -10 -743 9 -39 9 -125
38 -190 66 -216 91 -403 131 -873 187 -283 33 -550 91 -780 169 -131 44 -307
92 -420 114 -30 6 -194 26 -365 46 -684 78 -1100 147 -1450 240 -317 85 -687
159 -1105 220 -284 42 -553 105 -641 151 -19 9 -52 29 -74 44 -60 41 -155 87
-237 114 -86 29 -394 96 -435 95 -27 0 -26 -1 10 -14 20 -8 70 -29 110 -48 41
-19 84 -38 96 -42 12 -4 21 -9 18 -11 -5 -5 -121 36 -297 105 -132 52 -290 97
-400 116 -47 8 -138 23 -202 34 -64 11 -145 23 -180 26 -163 16 -337 37 -488
59 -91 14 -226 30 -300 36 -74 7 -180 18 -235 25 l-100 13 100 3 c138 4 155 2
365 -33 260 -43 280 -46 420 -63 143 -17 165 -18 131 -4 -36 14 -272 54 -466
79 -94 12 -228 32 -300 45 -71 13 -200 35 -285 49 -528 86 -644 101 -703 92
-22 -4 -125 2 -231 13 -195 21 -363 35 -611 51 -273 18 -413 47 -553 116 -100
49 -182 117 -182 152 0 51 203 229 446 392 273 182 343 202 637 181 94 -7 208
-17 252 -22 44 -5 179 -12 300 -15 264 -7 291 -2 492 86 198 88 592 291 688
355 145 96 233 211 269 352 18 68 21 234 6 299 -9 41 -65 162 -102 222 -20 32
-20 36 -5 275 17 266 21 907 6 1022 -5 39 -13 133 -19 210 -14 192 -34 328
-61 410 -23 70 -234 497 -311 629 -23 38 -82 117 -132 175 -51 58 -102 123
-114 144 -30 51 -104 137 -119 137 -6 0 -33 30 -59 67 -65 91 -157 179 -276
264 -54 38 -98 72 -98 75 0 3 32 -17 72 -45 40 -27 74 -48 76 -46 3 2 -27 46
-65 97 -76 102 -194 276 -238 351 -15 26 -29 46 -31 44 -2 -2 12 -52 31 -112
19 -60 32 -111 31 -113 -6 -6 -41 92 -90 253 -53 177 -144 445 -179 530 -14
33 -22 62 -18 65 4 3 0 66 -10 140 -10 74 -18 170 -18 213 -1 84 -17 105 -24
30 -3 -27 -3 -14 -1 27 2 41 12 143 24 225 63 464 80 515 350 1075 126 262
208 458 310 740 76 213 128 311 234 444 107 134 151 214 235 420 68 165 101
222 232 398 150 201 185 292 176 463 -4 96 -7 106 -77 275 -94 230 -108 268
-131 375 -33 150 -46 181 -96 225 -105 92 -316 215 -473 275 -123 48 -748 258
-848 286 -107 30 -180 68 -264 139 -40 34 -138 104 -218 157 -161 107 -186
126 -121 93 23 -12 40 -17 36 -11 -8 14 -120 71 -138 71 -8 0 -72 28 -143 61
-231 110 -310 130 -522 128 -81 -1 -183 -7 -227 -14z m1704 -6220 c0 -5 -6 1
-14 15 -8 14 -14 30 -14 35 0 6 6 -1 14 -15 8 -14 14 -29 14 -35z m-3579
-6534 c32 -6 -6 -9 -126 -10 -94 0 -207 -3 -250 -5 l-79 -5 90 13 c102 15 298
18 365 7z m327 3 c-3 -3 -12 -4 -19 -1 -8 3 -5 6 6 6 11 1 17 -2 13 -5z m3703
-150 c58 -14 143 -37 190 -52 47 -14 123 -33 170 -43 47 -9 75 -18 63 -18 -39
-2 -171 27 -270 59 -54 18 -156 45 -228 61 -71 16 -107 26 -80 23 28 -3 97
-17 155 -30z m2862 -564 c88 -15 141 -31 208 -62 50 -22 89 -43 87 -45 -2 -2
-24 6 -49 17 -26 11 -117 38 -205 60 -224 57 -231 62 -41 30z m398 -150 c8 -5
11 -10 5 -10 -5 0 -17 5 -25 10 -8 5 -10 10 -5 10 6 0 17 -5 25 -10z m50 -20
c8 -5 11 -10 5 -10 -5 0 -17 5 -25 10 -8 5 -10 10 -5 10 6 0 17 -5 25 -10z
m60 -20 c18 -12 2 -12 -25 0 -13 6 -15 9 -5 9 8 0 22 -4 30 -9z m60 -20 c18
-12 2 -12 -25 0 -13 6 -15 9 -5 9 8 0 22 -4 30 -9z m64 -19 c3 -4 -6 -6 -19
-3 -14 2 -25 6 -25 8 0 8 39 4 44 -5z m59 -18 c-7 -2 -19 -2 -25 0 -7 3 -2 5
12 5 14 0 19 -2 13 -5z m80 -20 c-7 -2 -19 -2 -25 0 -7 3 -2 5 12 5 14 0 19
-2 13 -5z m187 -32 c36 -6 101 -13 145 -16 250 -19 374 -44 669 -137 156 -48
280 -79 381 -92 28 -4 61 -9 75 -11 14 -2 90 -13 170 -25 80 -11 276 -43 435
-71 160 -28 304 -52 321 -54 16 -2 91 -23 167 -48 75 -25 169 -53 209 -63 39
-10 67 -19 61 -21 -5 -2 -97 19 -204 46 -269 69 -486 114 -744 156 -633 101
-592 93 -1093 224 -118 31 -268 57 -487 86 -71 10 -157 24 -190 31 -64 15 -32
13 85 -5z m2793 -560 c62 -10 159 -27 217 -36 98 -16 150 -28 448 -106 64 -16
137 -34 162 -39 25 -5 77 -16 115 -25 282 -63 362 -75 543 -85 194 -9 328 -32
585 -99 61 -16 130 -32 152 -36 22 -4 35 -9 29 -12 -6 -2 -102 17 -215 41
-237 52 -348 70 -514 86 -226 20 -410 50 -600 96 -219 52 -657 148 -890 193
-88 18 -164 34 -170 36 -26 9 36 3 138 -14z m2412 -461 c34 -6 36 -8 10 -8
-16 0 -57 6 -90 14 -59 14 -59 14 -10 8 28 -4 68 -10 90 -14z m13170 -241
c-27 -4 -104 -13 -170 -18 -66 -5 -129 -13 -140 -17 -12 -4 -17 -3 -12 2 21
23 136 42 252 42 98 0 111 -2 70 -9z m-3155 -109 c-36 -4 -112 -8 -170 -9
-110 -1 -271 -17 -525 -51 -256 -34 -398 -51 -401 -47 -4 3 98 22 261 49 33 5
64 14 70 19 5 5 51 9 103 9 86 0 403 26 427 35 6 2 75 3 155 3 116 -1 132 -2
80 -8z m-1122 -117 c-10 -2 -26 -2 -35 0 -10 3 -2 5 17 5 19 0 27 -2 18 -5z
m-150 -20 c-10 -2 -26 -2 -35 0 -10 3 -2 5 17 5 19 0 27 -2 18 -5z m-93 -13
c-104 -18 -374 -53 -535 -70 -267 -26 -314 -30 -363 -29 -42 1 -36 3 33 10 47
4 132 13 190 19 58 6 125 13 150 16 25 2 74 8 110 13 212 30 373 48 420 48
l35 0 -40 -7z m-1035 -99 c42 -6 40 -7 -40 -14 -47 -4 -130 -6 -185 -6 l-100
1 55 13 c61 14 200 17 270 6z"/>
<path d="M11871 21006 c94 -85 184 -153 228 -173 74 -33 111 -44 111 -32 0 5
-4 9 -10 9 -5 0 -65 38 -133 84 -117 79 -178 116 -193 116 -4 0 -5 -2 -3 -4z"/>
<path d="M12426 20728 c3 -4 13 -8 23 -8 22 0 351 -111 530 -179 147 -56 156
-58 124 -36 -41 29 -279 127 -423 175 -132 44 -267 70 -254 48z"/>
<path d="M13421 20327 c2 -1 13 -9 24 -17 19 -14 19 -14 6 3 -7 9 -18 17 -24
17 -6 0 -8 -1 -6 -3z"/>
<path d="M8744 19632 c-153 -93 -364 -220 -469 -284 -200 -121 -401 -240 -730
-432 -109 -64 -197 -116 -193 -116 6 0 280 114 318 133 122 59 341 189 540
319 80 53 219 134 310 180 173 89 278 153 350 213 81 67 173 155 163 155 -5 0
-135 -76 -289 -168z"/>
<path d="M13779 19605 c20 -47 37 -79 39 -71 4 18 -45 131 -63 146 -7 6 4 -28
24 -75z"/>
<path d="M19490 18516 c0 -8 112 -77 118 -72 7 8 -21 30 -70 56 -37 20 -48 24
-48 16z"/>
<path d="M24776 16225 c-28 -8 -68 -27 -90 -42 -45 -31 -140 -141 -169 -194
-16 -29 -12 -27 27 16 25 28 45 53 46 56 0 12 108 90 186 134 82 47 82 52 0
30z"/>
<path d="M9625 16013 c-50 -5 -155 -35 -155 -43 0 -4 21 -3 48 1 94 16 224 10
271 -11 24 -11 45 -19 47 -18 4 5 -30 43 -56 61 -23 16 -76 20 -155 10z"/>
<path d="M21792 11307 c-17 -20 -43 -87 -35 -87 9 1 55 92 49 97 -2 2 -8 -3
-14 -10z"/>
</g>
</svg>
